<svg xmlns="http://www.w3.org/2000/svg" version="1.1" xmlns:xlink="http://www.w3.org/1999/xlink" xmlns:svgjs="http://svgjs.dev/svgjs" width="1500" height="1500" viewBox="0 0 1500 1500"><rect width="1500" height="1500" fill="#162836"></rect><g transform="matrix(0.6666666666666666,0,0,0.6666666666666666,248.8595238095238,162.47611336032384)"><svg viewBox="0 0 210 247" data-background-color="#162836" preserveAspectRatio="xMidYMid meet" height="1764" width="1500" xmlns="http://www.w3.org/2000/svg" xmlns:xlink="http://www.w3.org/1999/xlink"><g id="tight-bounds" transform="matrix(1,0,0,1,0.2394999999999925,-0.09999999999999432)"><svg viewBox="0 0 209.5205275137302 247.2" height="247.2" width="209.5205275137302"><g><svg></svg></g><g><svg viewBox="0 0 209.5205275137302 247.2" height="247.2" width="209.5205275137302"><g transform="matrix(1,0,0,1,0,47.215199999999996)"><svg viewBox="0 0 209.5205275137302 152.7696" height="152.7696" width="209.5205275137302"><g><svg viewBox="0 0 244.43135999999996 178.22445150253324" height="152.7696" width="209.5205275137302"><g><svg viewBox="0 0 244.43135999999996 178.22445150253324" height="178.22445150253324" width="244.43135999999996"><g id="textblocktransform"><svg viewBox="0 0 244.43135999999996 178.22445150253324" height="178.22445150253324" width="244.43135999999996" id="textblock"><g><svg viewBox="0 0 244.43135999999996 130.76267661279508" height="130.76267661279508" width="244.43135999999996"><g transform="matrix(1,0,0,1,0,0)"><svg width="244.43135999999996" viewBox="0.49 -23.942816838880994 45.21 24.182816838880996" height="130.76267661279508" data-palette-color="#cf7650"><path d="M12.11 0.24L0.49-21.58 2-23.1 12.74-3.56 17.33-22.46Q17.68-22.31 18.07-22.24 18.46-22.17 18.77-22.09 19.09-22.02 19.29-21.92 19.48-21.83 19.48-21.58L19.48-21.58Q18.85-18.46 18.29-15.72 17.72-12.99 17.09-10.4 16.46-7.81 15.72-5.2 14.99-2.59 14.01 0.24L14.01 0.24 12.11 0.24ZM20.36-19.04L20.36-19.04Q20.94-19.04 21.63-18.75 22.31-18.46 22.6-17.58L22.6-17.58Q23-19.24 23.8-20.26 24.61-21.29 25.66-21.68 26.71-22.07 27.85-21.95 29-21.83 30-21.24 31-20.65 31.76-19.73 32.52-18.8 32.81-17.58L32.81-17.58Q33.35-19.09 34.25-20.39 35.15-21.68 36.25-22.56 37.35-23.44 38.55-23.78 39.74-24.12 40.79-23.75 41.84-23.39 42.65-22.19 43.45-21 43.8-18.75L43.8-18.75Q43.89-18.12 44.04-16.87 44.19-15.63 44.36-14.06 44.53-12.5 44.75-10.77 44.97-9.03 45.14-7.47 45.31-5.91 45.46-4.66 45.6-3.42 45.7-2.83L45.7-2.83Q45.7-2.34 45.65-1.76 45.6-1.17 45.43-0.76 45.26-0.34 44.89-0.22 44.53-0.1 43.8-0.63L43.8-0.63Q43.8-1.22 43.65-2.54 43.5-3.86 43.36-5.59 43.21-7.32 42.99-9.25 42.77-11.18 42.55-12.89 42.33-14.6 42.19-15.92 42.04-17.24 41.89-17.77L41.89-17.77Q41.16-20.02 40.35-20.9 39.55-21.78 38.74-21.68 37.94-21.58 37.2-20.65 36.47-19.73 35.89-18.31 35.3-16.89 34.79-15.16 34.27-13.43 34.01-11.72 33.74-10.01 33.66-8.5 33.59-6.98 33.84-6.01L33.84-6.01 31.93-5.62Q32.08-10.3 31.61-13.31 31.15-16.31 30.34-17.92 29.54-19.53 28.51-19.85 27.49-20.17 26.49-19.43 25.49-18.7 24.66-16.99 23.83-15.28 23.41-12.87 23-10.45 23.09-7.42 23.19-4.39 24.12-0.93L24.12-0.93 22.26-0.93Q22.26-0.93 22.14-1.86 22.02-2.78 21.85-4.22 21.68-5.66 21.48-7.5 21.29-9.33 21.09-11.21 20.9-13.09 20.7-14.82 20.51-16.55 20.36-17.77L20.36-17.77Q20.36-17.92 20.36-18.43 20.36-18.95 20.36-19.04Z" opacity="1" transform="matrix(1,0,0,1,0,0)" fill="#cf7650" class="wordmark-text-0" data-fill-palette-color="primary" id="text-0"></path></svg></g></svg></g><g transform="matrix(1,0,0,1,46.68638976,161.63260625683728)"><svg viewBox="0 0 151.05858047999996 16.59184524569595" height="16.59184524569595" width="151.05858047999996"><g transform="matrix(1,0,0,1,0,0)"><svg width="151.05858047999996" viewBox="1.292083233342 -38.38 462.287916766658 50.78" height="16.59184524569595" data-palette-color="#cf7650"><path d="M10.25 0.61L10.25 0.61Q7.64 0.61 5.92 0.17 4.2-0.27 3.16-0.89 2.12-1.51 1.54-2.03L1.54-2.03Q1.1-2.44 1.44-2.95L1.44-2.95 3.93-6.64Q4.47-7.42 5.15-6.74L5.15-6.74Q5.86-6.05 7.07-5.41 8.28-4.76 10.08-4.76L10.08-4.76Q11.69-4.76 12.73-5.31 13.77-5.86 13.77-6.91L13.77-6.91Q13.77-7.64 13.31-8.11 12.84-8.57 11.67-9.06 10.5-9.55 8.4-10.3L8.4-10.3Q5.3-11.43 3.71-13.01 2.12-14.6 2.12-17.65L2.12-17.65Q2.12-20.46 3.67-22.22 5.22-23.97 7.65-24.79 10.08-25.61 12.72-25.61L12.72-25.61Q16.06-25.61 17.42-24.99 18.77-24.37 19.17-24.02L19.17-24.02Q19.53-23.71 19.68-23.29L19.68-23.29Q20-22.34 20.17-20.78L20.17-20.78Q20.26-19.87 19.7-19.58L19.7-19.58Q19.41-19.41 18.77-19.21 18.14-19.02 17.5-18.87 16.87-18.73 16.55-18.73L16.55-18.73Q16.46-18.73 16.35-18.79 16.24-18.85 15.97-19.09L15.97-19.09Q15.65-19.41 14.88-19.82 14.11-20.24 12.77-20.24L12.77-20.24Q11.45-20.24 10.56-19.81 9.67-19.38 9.67-18.31L9.67-18.31Q9.67-17.14 10.8-16.55 11.94-15.97 14.55-15.04L14.55-15.04Q16.6-14.33 18.13-13.49 19.65-12.65 20.48-11.29 21.31-9.94 21.31-7.64L21.31-7.64Q21.31-4.66 19.69-2.84 18.07-1.03 15.54-0.21 13.01 0.61 10.25 0.61ZM38.06 0.61L38.06 0.61Q31.91 0.61 28.32-2.66 24.73-5.93 24.73-12.4L24.73-12.4Q24.73-19.04 28.45-22.33 32.18-25.61 38.4-25.61L38.4-25.61Q44.41-25.61 48.02-22.38 51.63-19.14 51.63-12.84L51.63-12.84Q51.63-6.27 48.02-2.83 44.41 0.61 38.06 0.61ZM38.3-5.3L38.3-5.3Q40.99-5.3 42.36-6.97 43.72-8.64 43.72-12.7L43.72-12.7Q43.72-16.55 42.34-18.13 40.96-19.7 38.25-19.7L38.25-19.7Q35.64-19.7 34.14-18.01 32.64-16.31 32.64-12.5L32.64-12.5Q32.64-8.52 34.07-6.91 35.5-5.3 38.3-5.3ZM66.57-19.31L66.57-1.29Q66.57-0.56 66.27-0.28 65.96 0 65.23 0L65.23 0 60.2 0Q59.47 0 59.16-0.28 58.86-0.56 58.86-1.29L58.86-1.29 58.86-19.31 55.98-19.31Q55.24-19.31 54.96-19.62 54.68-19.92 54.68-20.65L54.68-20.65 54.68-23.66Q54.68-24.39 54.96-24.69 55.24-25 55.98-25L55.98-25 58.86-25 58.86-28.1Q58.86-31.05 60.04-33.18 61.23-35.3 63.24-36.45 65.25-37.6 67.72-37.6L67.72-37.6Q68.87-37.6 69.47-37.5 70.06-37.4 70.36-37.21L70.36-37.21Q71.31-36.67 72.99-35.01L72.99-35.01Q73.26-34.72 73.26-34.42L73.26-34.42Q73.26-34.11 72.85-33.69L72.85-33.69Q72.11-32.93 71.45-32.41 70.8-31.88 70.38-31.62L70.38-31.62Q70.01-31.4 69.73-31.36 69.45-31.32 68.96-31.32L68.96-31.32Q66.57-31.32 66.57-27.66L66.57-27.66 66.57-25 70.99-25Q71.72-25 72-24.69 72.29-24.39 72.29-23.66L72.29-23.66 72.29-20.65Q72.29-19.92 72-19.62 71.72-19.31 70.99-19.31L70.99-19.31 66.57-19.31ZM85.86 0.61L85.86 0.61Q77.7 0.61 77.7-7.86L77.7-7.86 77.7-19.31 74.94-19.31Q74.21-19.31 73.93-19.62 73.65-19.92 73.65-20.65L73.65-20.65 73.65-23.66Q73.65-24.39 73.93-24.69 74.21-25 74.94-25L74.94-25 77.7-25 77.7-28.93Q77.7-29.52 77.95-29.83L77.95-29.83Q78.97-31.18 80.95-32.74L80.95-32.74Q81.29-32.98 81.56-32.98L81.56-32.98Q81.85-32.98 82.15-32.74L82.15-32.74Q83.2-31.93 83.92-31.23 84.64-30.52 85.15-29.83L85.15-29.83Q85.39-29.52 85.39-28.93L85.39-28.93 85.39-25 89.71-25Q90.45-25 90.73-24.69 91.01-24.39 91.01-23.66L91.01-23.66 91.01-20.65Q91.01-19.92 90.73-19.62 90.45-19.31 89.71-19.31L89.71-19.31 85.39-19.31 85.39-9.2Q85.39-5.3 88.22-5.3L88.22-5.3Q88.66-5.3 89.03-5.38 89.4-5.47 89.67-5.57L89.67-5.57Q90.18-5.76 90.39-5.71 90.59-5.66 90.76-5.18L90.76-5.18 92.18-1.39Q92.4-0.78 91.89-0.51L91.89-0.51Q91.52-0.34 90.12 0.13 88.71 0.61 85.86 0.61ZM100.62-1.78L100.62-1.78Q99.92-2.88 99.11-4.85 98.31-6.81 97.52-9.22 96.74-11.62 96.1-14.03 95.45-16.43 95.06-18.44 94.67-20.46 94.67-21.61L94.67-21.61Q94.67-22.09 94.94-22.41L94.94-22.41Q96.06-23.8 98.13-25.32L98.13-25.32Q98.5-25.56 98.79-25.56L98.79-25.56Q99.11-25.56 99.45-25.32L99.45-25.32Q100.58-24.51 101.34-23.8 102.11-23.1 102.65-22.41L102.65-22.41Q102.92-22.09 102.92-21.51L102.92-21.51 102.92-21.63Q102.92-20.12 103.1-18.14 103.29-16.16 103.63-14.06 103.97-11.96 104.45-10.06 104.92-8.15 105.51-6.79L105.51-6.79 105.65-6.79Q106.29-8.15 107-10.35 107.7-12.55 108.35-15 109-17.46 109.51-19.63 110.02-21.8 110.24-23.07L110.24-23.07Q110.41-24.02 111.01-24.34 111.61-24.66 112.69-24.66L112.69-24.66 115.52-24.66Q116.74-24.66 117.26-24.29 117.79-23.93 117.91-23.07L117.91-23.07Q118.11-21.75 118.62-19.52 119.13-17.29 119.78-14.79 120.42-12.3 121.08-10.13 121.74-7.96 122.21-6.79L122.21-6.79 122.38-6.79Q123.11-8.4 123.77-10.95 124.43-13.5 124.84-16.33 125.26-19.17 125.26-21.61L125.26-21.61 125.26-21.51Q125.26-22.09 125.5-22.41L125.5-22.41Q126.06-23.1 126.82-23.8 127.58-24.51 128.65-25.32L128.65-25.32Q128.99-25.56 129.29-25.56L129.29-25.56Q129.63-25.56 129.92-25.32L129.92-25.32Q131.02-24.51 131.78-23.8 132.53-23.1 133.07-22.41L133.07-22.41Q133.32-22.09 133.32-21.56L133.32-21.56Q133.29-20.36 132.85-18.37 132.41-16.38 131.69-14.01 130.97-11.65 130.1-9.28 129.24-6.91 128.35-4.93 127.46-2.95 126.7-1.78L126.7-1.78Q126.21-1.03 125.84-0.63 125.48-0.24 124.95-0.12 124.43 0 123.4 0L123.4 0 120.64 0Q119.5 0 118.85-0.33 118.2-0.66 117.64-1.78L117.64-1.78Q117.3-2.44 116.81-3.99 116.32-5.54 115.81-7.39 115.3-9.23 114.91-10.84 114.52-12.45 114.39-13.21L114.39-13.21Q114.27-13.94 114.14-14.99 114-16.04 113.95-16.65L113.95-16.65 113.83-16.65Q113.81-16.04 113.67-15 113.54-13.96 113.39-13.18L113.39-13.18Q113.25-12.5 112.86-11.07 112.47-9.64 111.92-7.92 111.37-6.2 110.77-4.57 110.17-2.93 109.63-1.78L109.63-1.78Q109.1-0.66 108.4-0.33 107.7 0 106.19 0L106.19 0 103.36 0Q102.16 0 101.74-0.37 101.31-0.73 100.62-1.78ZM94.67-21.51L94.67-21.66 94.67-21.61Q94.67-21.56 94.67-21.51L94.67-21.51ZM133.32-21.61L133.32-21.61 133.32-21.51 133.32-21.56Q133.32-21.58 133.32-21.61ZM144.79 0.61L144.79 0.61Q141.2 0.61 139.09-1.4 136.97-3.42 136.97-6.96L136.97-6.96Q136.97-8.79 137.65-10.36 138.32-11.94 139.99-13.15 141.66-14.36 144.68-15.09 147.69-15.82 152.38-15.94L152.38-15.94Q152.38-18.16 151.27-19.14 150.16-20.12 147.94-20.12L147.94-20.12Q145.93-20.12 144.67-19.43 143.4-18.75 143.08-18.51L143.08-18.51Q142.74-18.21 142.25-18.29L142.25-18.29Q141.59-18.38 140.84-18.63 140.1-18.87 139.25-19.19L139.25-19.19Q139.12-19.24 138.98-19.35 138.83-19.46 138.81-19.68L138.81-19.68Q138.81-19.8 138.83-19.98 138.85-20.17 138.95-20.65L138.95-20.65Q139.05-21.14 139.25-21.86 139.44-22.58 139.61-22.97L139.61-22.97Q139.83-23.39 140.34-23.75L140.34-23.75Q140.76-24.1 142.86-24.85 144.96-25.61 148.94-25.61L148.94-25.61Q159.9-25.61 159.9-14.94L159.9-14.94 159.9-1.12Q159.9-0.66 159.64-0.33 159.39 0 158.78 0L158.78 0 155.11 0Q154.72 0 154.42-0.11 154.11-0.22 153.84-0.54L153.84-0.54 152.33-2.49 152.16-2.49Q151.04-0.85 149.15-0.12 147.25 0.61 144.79 0.61ZM147.47-5.05L147.47-5.05Q149.72-5.05 150.87-6.2 152.01-7.35 152.33-8.57L152.33-8.57 152.33-11.28Q148.94-11.28 147.24-10.75 145.54-10.23 144.98-9.39 144.42-8.54 144.42-7.57L144.42-7.57Q144.42-6.15 145.3-5.6 146.18-5.05 147.47-5.05ZM174.2-22.17L174.2-20.36 174.3-20.36Q176.13-25.44 180.89-25.44L180.89-25.44Q181.5-25.44 181.89-25.38 182.28-25.32 182.43-25.27L182.43-25.27Q182.8-25.15 182.8-24.71L182.8-24.71 182.8-18.82Q182.8-18.07 181.92-18.41L181.92-18.41Q181.63-18.53 181.08-18.66 180.53-18.8 179.55-18.8L179.55-18.8Q177.04-18.8 175.62-16.96 174.2-15.11 174.2-11.94L174.2-11.94 174.2-1.29Q174.2-0.56 173.9-0.28 173.59 0 172.86 0L172.86 0 167.83 0Q167.1 0 166.79-0.28 166.49-0.56 166.49-1.29L166.49-1.29 166.49-21.75Q166.49-22.34 166.73-22.66L166.73-22.66Q167.25-23.34 167.97-24.05 168.69-24.76 169.74-25.56L169.74-25.56Q169.93-25.71 170.13-25.76 170.32-25.81 170.47-25.81L170.47-25.81Q170.81-25.81 171.15-25.56L171.15-25.56Q173.18-23.97 173.98-22.85L173.98-22.85Q174.2-22.56 174.2-22.17L174.2-22.17ZM198.69 0.61L198.69 0.61Q194.56 0.61 191.51-0.72 188.46-2.05 186.77-4.86 185.09-7.67 185.09-12.11L185.09-12.11Q185.09-18.77 188.51-22.19 191.93-25.61 197.59-25.61L197.59-25.61Q201.28-25.61 203.83-24.29 206.38-22.97 207.71-20.65 209.04-18.33 209.04-15.36L209.04-15.36Q209.04-12.45 207.55-11.3 206.06-10.16 203.21-10.16L203.21-10.16 192.73-10.16Q192.93-7.64 194.57-6.32 196.22-5 199.05-5L199.05-5Q201.3-5 202.66-5.68 204.01-6.35 204.55-6.74L204.55-6.74Q205.01-7.08 205.6-7.06L205.6-7.06Q206.06-7.06 206.93-6.87 207.8-6.69 208.65-6.2L208.65-6.2Q209.26-5.88 209.26-5.32L209.26-5.32Q209.26-5 209.14-4.42L209.14-4.42Q209.06-4.08 208.89-3.43 208.72-2.78 208.45-2.22L208.45-2.22Q208.31-1.95 207.99-1.71L207.99-1.71Q207.5-1.37 206.42-0.81 205.33-0.24 203.45 0.18 201.57 0.61 198.69 0.61ZM192.68-15.16L192.68-15.16 200.64-15.16Q201.89-15.16 201.89-16.31L201.89-16.31Q201.89-18.04 200.8-19.23 199.71-20.41 197.54-20.41L197.54-20.41Q195.17-20.41 194.06-18.9 192.95-17.38 192.68-15.16ZM237.04 0.61L237.04 0.61Q233.79 0.61 231.51-0.99 229.23-2.59 228.04-5.41 226.86-8.23 226.86-11.91L226.86-11.91Q226.86-16.77 228.58-19.79 230.3-22.8 233.44-24.22 236.57-25.63 240.85-25.63L240.85-25.63Q242.31-25.63 243.28-25.49 244.24-25.34 244.66-25.22L244.66-25.22 244.66-34.33Q244.66-34.91 244.9-35.23L244.9-35.23Q245.92-36.57 247.9-38.13L247.9-38.13Q248.24-38.38 248.51-38.38L248.51-38.38Q248.83-38.38 249.12-38.13L249.12-38.13Q250.17-37.33 250.89-36.62 251.61-35.91 252.13-35.23L252.13-35.23Q252.37-34.91 252.37-34.33L252.37-34.33 252.37-1.12Q252.37-0.66 252.05-0.33 251.74 0 251.25 0L251.25 0 247.61 0Q247.22 0 246.91-0.11 246.61-0.22 246.34-0.54L246.34-0.54 244.83-2.49 244.66-2.49Q244.34-2 243.52-1.26 242.7-0.51 241.15 0.05 239.6 0.61 237.04 0.61ZM239.41-5.64L239.41-5.64Q241.6-5.64 242.86-6.47 244.12-7.3 244.66-8.57L244.66-8.57 244.66-18.8Q244.26-19.04 243.36-19.38 242.46-19.73 240.82-19.73L240.82-19.73Q237.79-19.73 236.28-17.75 234.77-15.77 234.77-12.43L234.77-12.43Q234.77-8.96 236.04-7.3 237.31-5.64 239.41-5.64ZM271.22 0.61L271.22 0.61Q267.09 0.61 264.04-0.72 260.99-2.05 259.3-4.86 257.62-7.67 257.62-12.11L257.62-12.11Q257.62-18.77 261.03-22.19 264.45-25.61 270.12-25.61L270.12-25.61Q273.8-25.61 276.35-24.29 278.91-22.97 280.24-20.65 281.57-18.33 281.57-15.36L281.57-15.36Q281.57-12.45 280.08-11.3 278.59-10.16 275.73-10.16L275.73-10.16 265.26-10.16Q265.45-7.64 267.1-6.32 268.75-5 271.58-5L271.58-5Q273.83-5 275.18-5.68 276.54-6.35 277.07-6.74L277.07-6.74Q277.54-7.08 278.12-7.06L278.12-7.06Q278.59-7.06 279.45-6.87 280.32-6.69 281.18-6.2L281.18-6.2Q281.79-5.88 281.79-5.32L281.79-5.32Q281.79-5 281.66-4.42L281.66-4.42Q281.59-4.08 281.42-3.43 281.25-2.78 280.98-2.22L280.98-2.22Q280.83-1.95 280.52-1.71L280.52-1.71Q280.03-1.37 278.94-0.81 277.86-0.24 275.98 0.18 274.1 0.61 271.22 0.61ZM265.21-15.16L265.21-15.16 273.17-15.16Q274.41-15.16 274.41-16.31L274.41-16.31Q274.41-18.04 273.33-19.23 272.24-20.41 270.07-20.41L270.07-20.41Q267.7-20.41 266.59-18.9 265.48-17.38 265.21-15.16ZM292.21-2.27L292.21-2.27Q290.87-4.39 289.56-7.17 288.25-9.94 287.19-12.78 286.13-15.63 285.49-17.98 284.86-20.34 284.86-21.61L284.86-21.61Q284.86-22.09 285.13-22.41L285.13-22.41Q286.25-23.8 288.33-25.32L288.33-25.32Q288.69-25.56 288.99-25.56L288.99-25.56Q289.3-25.56 289.65-25.32L289.65-25.32Q290.77-24.51 291.54-23.8 292.31-23.1 292.84-22.41L292.84-22.41Q293.11-22.09 293.11-21.51L293.11-21.51 293.11-21.63Q293.11-20.04 293.69-17.47 294.26-14.89 295.26-12.04 296.26-9.18 297.58-6.79L297.58-6.79 297.7-6.79Q298.8-8.59 299.66-10.69 300.51-12.79 301.1-14.89 301.68-16.99 301.99-18.75 302.29-20.51 302.29-21.61L302.29-21.61 302.29-21.51Q302.29-22.09 302.54-22.41L302.54-22.41Q303.1-23.1 303.85-23.8 304.61-24.51 305.69-25.32L305.69-25.32Q306.03-25.56 306.32-25.56L306.32-25.56Q306.66-25.56 306.95-25.32L306.95-25.32Q308.05-24.51 308.81-23.8 309.57-23.1 310.1-22.41L310.1-22.41Q310.35-22.09 310.35-21.56L310.35-21.56Q310.32-20.24 309.66-17.86 309.01-15.48 307.89-12.63 306.78-9.79 305.42-7.04 304.05-4.3 302.63-2.27L302.63-2.27Q301.78-1.03 301.1-0.51 300.41 0 298.73 0L298.73 0 296.14 0Q294.38 0 293.71-0.49 293.04-0.98 292.21-2.27ZM284.86-21.51L284.86-21.63 284.86-21.61Q284.86-21.56 284.86-21.51L284.86-21.51ZM310.35-21.61L310.35-21.61 310.35-21.51 310.35-21.56Q310.35-21.58 310.35-21.61ZM327.12 0.61L327.12 0.61Q322.99 0.61 319.94-0.72 316.89-2.05 315.2-4.86 313.52-7.67 313.52-12.11L313.52-12.11Q313.52-18.77 316.94-22.19 320.36-25.61 326.02-25.61L326.02-25.61Q329.71-25.61 332.26-24.29 334.81-22.97 336.14-20.65 337.47-18.33 337.47-15.36L337.47-15.36Q337.47-12.45 335.98-11.3 334.49-10.16 331.64-10.16L331.64-10.16 321.16-10.16Q321.36-7.64 323-6.32 324.65-5 327.48-5L327.48-5Q329.73-5 331.09-5.68 332.44-6.35 332.98-6.74L332.98-6.74Q333.44-7.08 334.03-7.06L334.03-7.06Q334.49-7.06 335.36-6.87 336.22-6.69 337.08-6.2L337.08-6.2Q337.69-5.88 337.69-5.32L337.69-5.32Q337.69-5 337.57-4.42L337.57-4.42Q337.49-4.08 337.32-3.43 337.15-2.78 336.88-2.22L336.88-2.22Q336.74-1.95 336.42-1.71L336.42-1.71Q335.93-1.37 334.85-0.81 333.76-0.24 331.88 0.18 330 0.61 327.12 0.61ZM321.11-15.16L321.11-15.16 329.07-15.16Q330.32-15.16 330.32-16.31L330.32-16.31Q330.32-18.04 329.23-19.23 328.14-20.41 325.97-20.41L325.97-20.41Q323.6-20.41 322.49-18.9 321.38-17.38 321.11-15.16ZM351.14-1.83L346.04 0.51Q345.52 0.73 345.3 0.73L345.3 0.73Q345.08 0.73 344.84 0.56L344.84 0.56Q344.28 0.17 343.56-1.35 342.84-2.88 342.84-6.05L342.84-6.05 342.84-34.33Q342.84-34.91 343.08-35.23L343.08-35.23Q344.11-36.57 346.09-38.13L346.09-38.13Q346.43-38.38 346.7-38.38L346.7-38.38Q347.01-38.38 347.31-38.13L347.31-38.13Q348.36-37.33 349.08-36.62 349.8-35.91 350.31-35.23L350.31-35.23Q350.55-34.91 350.55-34.33L350.55-34.33 350.55-7.54Q350.55-5.93 350.82-4.8 351.09-3.66 351.46-2.98L351.46-2.98Q351.87-2.17 351.14-1.83L351.14-1.83ZM369.23 0.61L369.23 0.61Q363.08 0.61 359.49-2.66 355.9-5.93 355.9-12.4L355.9-12.4Q355.9-19.04 359.62-22.33 363.34-25.61 369.57-25.61L369.57-25.61Q375.58-25.61 379.19-22.38 382.8-19.14 382.8-12.84L382.8-12.84Q382.8-6.27 379.19-2.83 375.58 0.61 369.23 0.61ZM369.47-5.3L369.47-5.3Q372.16-5.3 373.52-6.97 374.89-8.64 374.89-12.7L374.89-12.7Q374.89-16.55 373.51-18.13 372.13-19.7 369.42-19.7L369.42-19.7Q366.81-19.7 365.31-18.01 363.81-16.31 363.81-12.5L363.81-12.5Q363.81-8.52 365.24-6.91 366.66-5.3 369.47-5.3ZM403.6-25.61L403.6-25.61Q407.16-25.61 409.47-24.01 411.78-22.41 412.91-19.62 414.05-16.82 414.05-13.21L414.05-13.21Q414.05-9.3 412.72-6.18 411.39-3.05 408.8-1.22 406.21 0.61 402.38 0.61L402.38 0.61Q400.4 0.61 399.12 0.16 397.84-0.29 397.07-0.92 396.3-1.54 395.86-2.05L395.86-2.05 395.76-2.05 395.76 8.35Q395.76 8.94 395.52 9.25L395.52 9.25Q394.49 10.6 392.52 12.16L392.52 12.16Q392.17 12.4 391.91 12.4L391.91 12.4Q391.61 12.4 391.3 12.16L391.3 12.16Q390.25 11.35 389.53 10.64 388.81 9.94 388.29 9.25L388.29 9.25Q388.05 8.94 388.05 8.35L388.05 8.35 388.05-21.75Q388.05-22.34 388.29-22.66L388.29-22.66Q388.81-23.34 389.53-24.05 390.25-24.76 391.3-25.56L391.3-25.56Q391.61-25.81 391.95-25.81L391.95-25.81Q392.27-25.81 392.61-25.56L392.61-25.56Q393.64-24.76 394.37-24.02 395.1-23.29 395.67-22.51L395.67-22.51 395.79-22.51Q396.2-23.02 397.06-23.75 397.91-24.49 399.49-25.05 401.06-25.61 403.6-25.61ZM400.6-5.62L400.6-5.62Q403.23-5.62 404.69-7.46 406.14-9.3 406.14-12.79L406.14-12.79Q406.14-19.38 400.72-19.38L400.72-19.38Q398.42-19.38 397.33-18.44 396.23-17.5 395.76-16.46L395.76-16.46 395.76-11.16Q395.76-8.79 396.98-7.2 398.2-5.62 400.6-5.62ZM431.55 0.61L431.55 0.61Q427.43 0.61 424.37-0.72 421.32-2.05 419.64-4.86 417.95-7.67 417.95-12.11L417.95-12.11Q417.95-18.77 421.37-22.19 424.79-25.61 430.45-25.61L430.45-25.61Q434.14-25.61 436.69-24.29 439.24-22.97 440.57-20.65 441.9-18.33 441.9-15.36L441.9-15.36Q441.9-12.45 440.41-11.3 438.92-10.16 436.07-10.16L436.07-10.16 425.59-10.16Q425.79-7.64 427.44-6.32 429.09-5 431.92-5L431.92-5Q434.16-5 435.52-5.68 436.87-6.35 437.41-6.74L437.41-6.74Q437.88-7.08 438.46-7.06L438.46-7.06Q438.92-7.06 439.79-6.87 440.66-6.69 441.51-6.2L441.51-6.2Q442.12-5.88 442.12-5.32L442.12-5.32Q442.12-5 442-4.42L442-4.42Q441.93-4.08 441.76-3.43 441.59-2.78 441.32-2.22L441.32-2.22Q441.17-1.95 440.85-1.71L440.85-1.71Q440.37-1.37 439.28-0.81 438.19-0.24 436.31 0.18 434.43 0.61 431.55 0.61ZM425.55-15.16L425.55-15.16 433.5-15.16Q434.75-15.16 434.75-16.31L434.75-16.31Q434.75-18.04 433.66-19.23 432.58-20.41 430.4-20.41L430.4-20.41Q428.04-20.41 426.93-18.9 425.81-17.38 425.55-15.16ZM454.99-22.17L454.99-20.36 455.08-20.36Q456.92-25.44 461.68-25.44L461.68-25.44Q462.29-25.44 462.68-25.38 463.07-25.32 463.21-25.27L463.21-25.27Q463.58-25.15 463.58-24.71L463.58-24.71 463.58-18.82Q463.58-18.07 462.7-18.41L462.7-18.41Q462.41-18.53 461.86-18.66 461.31-18.8 460.33-18.8L460.33-18.8Q457.82-18.8 456.4-16.96 454.99-15.11 454.99-11.94L454.99-11.94 454.99-1.29Q454.99-0.56 454.68-0.28 454.38 0 453.64 0L453.64 0 448.61 0Q447.88 0 447.58-0.28 447.27-0.56 447.27-1.29L447.27-1.29 447.27-21.75Q447.27-22.34 447.52-22.66L447.52-22.66Q448.03-23.34 448.75-24.05 449.47-24.76 450.52-25.56L450.52-25.56Q450.71-25.71 450.91-25.76 451.1-25.81 451.25-25.81L451.25-25.81Q451.59-25.81 451.94-25.56L451.94-25.56Q453.96-23.97 454.77-22.85L454.77-22.85Q454.99-22.56 454.99-22.17L454.99-22.17Z" opacity="1" transform="matrix(1,0,0,1,0,0)" fill="#cf7650" class="slogan-text-1" data-fill-palette-color="secondary" id="text-1"></path></svg></g></svg></g></svg></g></svg></g><g></g></svg></g></svg></g><path d="M0 41.215L0 1 209.521 1 209.521 41.215 199.412 41.215 199.412 11.108 10.108 11.108 10.108 41.215 0 41.215M0 205.985L0 246.2 209.521 246.2 209.521 205.985 199.412 205.985 199.412 236.092 10.108 236.092 10.108 205.985 0 205.985" fill="#cf7650" stroke="transparent" data-fill-palette-color="tertiary"></path></svg></g><defs></defs></svg><rect width="209.5205275137302" height="247.2" fill="none" stroke="none" visibility="hidden"></rect></g></svg></g></svg>