<svg xmlns="http://www.w3.org/2000/svg" version="1.1" xmlns:xlink="http://www.w3.org/1999/xlink" xmlns:svgjs="http://svgjs.dev/svgjs" width="1500" height="688" viewBox="0 0 1500 688"><g transform="matrix(1,0,0,1,0.15999999999996817,-0.6431959999999322)"><svg viewBox="0 0 375 172" data-background-color="#162836" preserveAspectRatio="xMidYMid meet" height="688" width="1500" xmlns="http://www.w3.org/2000/svg" xmlns:xlink="http://www.w3.org/1999/xlink"><g id="tight-bounds" transform="matrix(1,0,0,1,-0.03976000000000113,0.16079899999998304)"><svg viewBox="0 0 375.07953 171.67840200000003" height="171.67840200000003" width="375.07953"><g><svg></svg></g><g><svg viewBox="0 0 375.07953 171.67840200000003" height="171.67840200000003" width="375.07953"><g transform="matrix(1,0,0,1,-10.22024,-42.05175999999997)"><path d="M10.22 205.148v-163.096h375.08v163.096h-131.195l0-3.921h127.274v-155.254h-367.238v155.254l22.895 0 0 3.921z" fill="#cf7650" fill-rule="nonzero" stroke="none" stroke-width="1" stroke-linecap="butt" stroke-linejoin="miter" stroke-miterlimit="10" stroke-dasharray="" stroke-dashoffset="0" font-family="none" font-weight="none" font-size="none" text-anchor="none" style="mix-blend-mode: normal" data-fill-palette-color="tertiary"></path><g><path transform="translate(48.25786,208.53915) scale(0.41863,0.41863)" d="M10.25 0.61v0c-1.74 0-3.183-0.147-4.33-0.44-1.147-0.293-2.067-0.647-2.76-1.06-0.693-0.413-1.233-0.793-1.62-1.14v0c-0.293-0.273-0.327-0.58-0.1-0.92v0l2.49-3.69c0.36-0.52 0.767-0.553 1.22-0.1v0c0.473 0.46 1.113 0.903 1.92 1.33 0.807 0.433 1.81 0.65 3.01 0.65v0c1.073 0 1.957-0.183 2.65-0.55 0.693-0.367 1.04-0.9 1.04-1.6v0c0-0.487-0.153-0.887-0.46-1.2-0.313-0.307-0.86-0.623-1.64-0.95-0.78-0.327-1.87-0.74-3.27-1.24v0c-2.067-0.753-3.63-1.657-4.69-2.71-1.06-1.06-1.59-2.607-1.59-4.64v0c0-1.873 0.517-3.397 1.55-4.57 1.033-1.167 2.36-2.023 3.98-2.57 1.62-0.547 3.31-0.82 5.07-0.82v0c2.227 0 3.793 0.207 4.7 0.62 0.9 0.413 1.483 0.737 1.75 0.97v0c0.24 0.207 0.41 0.45 0.51 0.73v0c0.213 0.633 0.377 1.47 0.49 2.51v0c0.06 0.607-0.097 1.007-0.47 1.2v0c-0.193 0.113-0.503 0.237-0.93 0.37-0.42 0.127-0.843 0.24-1.27 0.34-0.42 0.093-0.737 0.14-0.95 0.14v0c-0.06 0-0.127-0.02-0.2-0.06-0.073-0.04-0.2-0.14-0.38-0.3v0c-0.213-0.213-0.577-0.457-1.09-0.73-0.513-0.28-1.217-0.42-2.11-0.42v0c-0.88 0-1.617 0.143-2.21 0.43-0.593 0.287-0.89 0.787-0.89 1.5v0c0 0.78 0.377 1.367 1.13 1.76 0.76 0.387 2.01 0.89 3.75 1.51v0c1.367 0.473 2.56 0.99 3.58 1.55 1.013 0.56 1.797 1.293 2.35 2.2 0.553 0.9 0.83 2.117 0.83 3.65v0c0 1.987-0.54 3.587-1.62 4.8-1.08 1.207-2.463 2.083-4.15 2.63-1.687 0.547-3.45 0.82-5.29 0.82zM38.06 0.61v0c-4.1 0-7.347-1.09-9.74-3.27-2.393-2.18-3.59-5.427-3.59-9.74v0c0-4.427 1.24-7.737 3.72-9.93 2.487-2.187 5.803-3.28 9.95-3.28v0c4.007 0 7.213 1.077 9.62 3.23 2.413 2.16 3.62 5.34 3.62 9.54v0c0 4.38-1.207 7.717-3.62 10.01-2.407 2.293-5.727 3.44-9.96 3.44zM38.31-5.3v0c1.787 0 3.137-0.557 4.05-1.67 0.913-1.113 1.37-3.023 1.37-5.73v0c0-2.567-0.46-4.377-1.38-5.43-0.92-1.047-2.283-1.57-4.09-1.57v0c-1.747 0-3.12 0.563-4.12 1.69-1 1.133-1.5 2.97-1.5 5.51v0c0 2.653 0.477 4.517 1.43 5.59 0.953 1.073 2.367 1.61 4.24 1.61zM66.58-19.31v18.02c0 0.487-0.103 0.823-0.31 1.01-0.2 0.187-0.547 0.28-1.04 0.28v0h-5.02c-0.493 0-0.84-0.093-1.04-0.28-0.207-0.187-0.31-0.523-0.31-1.01v0-18.02h-2.88c-0.487 0-0.823-0.103-1.01-0.31-0.187-0.2-0.28-0.543-0.28-1.03v0-3.01c0-0.487 0.093-0.83 0.28-1.03 0.187-0.207 0.523-0.31 1.01-0.31v0h2.88v-3.1c0-1.967 0.397-3.66 1.19-5.08 0.787-1.413 1.85-2.503 3.19-3.27 1.347-0.767 2.84-1.15 4.48-1.15v0c0.767 0 1.35 0.033 1.75 0.1 0.4 0.067 0.697 0.163 0.89 0.29v0c0.633 0.36 1.513 1.093 2.64 2.2v0c0.18 0.193 0.27 0.39 0.27 0.59v0c0 0.207-0.14 0.45-0.42 0.73v0c-0.487 0.507-0.95 0.933-1.39 1.28-0.44 0.353-0.797 0.617-1.07 0.79v0c-0.247 0.147-0.463 0.233-0.65 0.26-0.187 0.027-0.443 0.04-0.77 0.04v0c-1.593 0-2.39 1.22-2.39 3.66v0 2.66h4.42c0.487 0 0.823 0.103 1.01 0.31 0.187 0.2 0.28 0.543 0.28 1.03v0 3.01c0 0.487-0.093 0.83-0.28 1.03-0.187 0.207-0.523 0.31-1.01 0.31v0zM85.86 0.61v0c-5.433 0-8.15-2.823-8.15-8.47v0-11.45h-2.76c-0.487 0-0.823-0.103-1.01-0.31-0.187-0.2-0.28-0.543-0.28-1.03v0-3.01c0-0.487 0.093-0.83 0.28-1.03 0.187-0.207 0.523-0.31 1.01-0.31v0h2.76v-3.93c0-0.393 0.08-0.693 0.24-0.9v0c0.687-0.9 1.69-1.87 3.01-2.91v0c0.227-0.16 0.43-0.24 0.61-0.24v0c0.193 0 0.387 0.08 0.58 0.24v0c0.7 0.54 1.29 1.043 1.77 1.51 0.48 0.473 0.893 0.94 1.24 1.4v0c0.16 0.207 0.24 0.507 0.24 0.9v0 3.93h4.32c0.487 0 0.823 0.103 1.01 0.31 0.193 0.2 0.29 0.543 0.29 1.03v0 3.01c0 0.487-0.097 0.83-0.29 1.03-0.187 0.207-0.523 0.31-1.01 0.31v0h-4.32v10.11c0 2.6 0.943 3.9 2.83 3.9v0c0.293 0 0.563-0.027 0.81-0.08 0.24-0.06 0.45-0.123 0.63-0.19v0c0.347-0.127 0.587-0.173 0.72-0.14 0.14 0.033 0.267 0.21 0.38 0.53v0l1.42 3.79c0.147 0.407 0.047 0.7-0.3 0.88v0c-0.24 0.113-0.83 0.327-1.77 0.64-0.933 0.32-2.353 0.48-4.26 0.48zM100.63-1.78v0c-0.467-0.733-0.97-1.757-1.51-3.07-0.533-1.307-1.063-2.763-1.59-4.37-0.52-1.6-0.993-3.203-1.42-4.81-0.433-1.6-0.78-3.07-1.04-4.41-0.26-1.347-0.39-2.403-0.39-3.17v0c0-0.32 0.09-0.587 0.27-0.8v0c0.747-0.927 1.81-1.897 3.19-2.91v0c0.247-0.16 0.467-0.24 0.66-0.24v0c0.213 0 0.433 0.08 0.66 0.24v0c0.753 0.54 1.383 1.047 1.89 1.52 0.513 0.467 0.95 0.93 1.31 1.39v0c0.18 0.213 0.27 0.513 0.27 0.9v0-0.12c0 1.007 0.06 2.17 0.18 3.49 0.127 1.32 0.303 2.68 0.53 4.08 0.227 1.4 0.5 2.733 0.82 4 0.313 1.273 0.667 2.363 1.06 3.27v0h0.14c0.427-0.907 0.877-2.093 1.35-3.56 0.467-1.467 0.917-3.017 1.35-4.65 0.433-1.64 0.82-3.183 1.16-4.63 0.34-1.447 0.583-2.593 0.73-3.44v0c0.113-0.633 0.37-1.057 0.77-1.27 0.4-0.213 0.96-0.32 1.68-0.32v0h2.83c0.813 0 1.393 0.123 1.74 0.37 0.353 0.24 0.57 0.647 0.65 1.22v0c0.133 0.88 0.37 2.063 0.71 3.55 0.34 1.487 0.727 3.063 1.16 4.73 0.427 1.66 0.86 3.213 1.3 4.66 0.44 1.447 0.817 2.56 1.13 3.34v0h0.17c0.487-1.073 0.95-2.46 1.39-4.16 0.44-1.7 0.797-3.493 1.07-5.38 0.28-1.893 0.42-3.653 0.42-5.28v0 0.1c0-0.387 0.08-0.687 0.24-0.9v0c0.373-0.46 0.813-0.923 1.32-1.39 0.507-0.473 1.117-0.98 1.83-1.52v0c0.227-0.16 0.44-0.24 0.64-0.24v0c0.227 0 0.437 0.08 0.63 0.24v0c0.733 0.54 1.353 1.047 1.86 1.52 0.5 0.467 0.93 0.93 1.29 1.39v0c0.167 0.213 0.25 0.497 0.25 0.85v0c-0.02 0.8-0.177 1.863-0.47 3.19-0.293 1.327-0.68 2.78-1.16 4.36-0.48 1.573-1.01 3.15-1.59 4.73-0.573 1.58-1.157 3.03-1.75 4.35-0.593 1.32-1.143 2.37-1.65 3.15v0c-0.327 0.5-0.613 0.883-0.86 1.15-0.24 0.26-0.537 0.43-0.89 0.51-0.347 0.08-0.863 0.12-1.55 0.12v0h-2.76c-0.76 0-1.357-0.11-1.79-0.33-0.433-0.22-0.837-0.703-1.21-1.45v0c-0.227-0.44-0.503-1.177-0.83-2.21-0.327-1.033-0.66-2.167-1-3.4-0.34-1.227-0.64-2.377-0.9-3.45-0.26-1.073-0.433-1.863-0.52-2.37v0c-0.08-0.487-0.163-1.08-0.25-1.78-0.093-0.7-0.157-1.253-0.19-1.66v0h-0.12c-0.013 0.407-0.067 0.957-0.16 1.65-0.087 0.693-0.18 1.3-0.28 1.82v0c-0.093 0.453-0.27 1.157-0.53 2.11-0.26 0.953-0.573 2.003-0.94 3.15-0.367 1.147-0.75 2.263-1.15 3.35-0.4 1.093-0.78 2.023-1.14 2.79v0c-0.353 0.747-0.763 1.23-1.23 1.45-0.467 0.22-1.203 0.33-2.21 0.33v0h-2.83c-0.8 0-1.34-0.123-1.62-0.37-0.287-0.24-0.66-0.71-1.12-1.41zM94.68-21.51v-0.15 0.05c0 0.033 0 0.067 0 0.1zM133.33-21.61v0 0.1-0.05c0-0.013 0-0.03 0-0.05zM144.8 0.61v0c-2.393 0-4.293-0.67-5.7-2.01-1.407-1.347-2.11-3.2-2.11-5.56v0c0-1.22 0.223-2.353 0.67-3.4 0.447-1.053 1.227-1.983 2.34-2.79 1.113-0.807 2.677-1.453 4.69-1.94 2.013-0.487 4.58-0.77 7.7-0.85v0c0-1.48-0.37-2.547-1.11-3.2-0.74-0.653-1.85-0.98-3.33-0.98v0c-1.333 0-2.423 0.23-3.27 0.69-0.847 0.453-1.377 0.76-1.59 0.92v0c-0.227 0.2-0.503 0.273-0.83 0.22v0c-0.44-0.06-0.907-0.173-1.4-0.34-0.5-0.16-1.033-0.347-1.6-0.56v0c-0.08-0.033-0.17-0.087-0.27-0.16-0.1-0.073-0.157-0.183-0.17-0.33v0c0-0.08 0.007-0.18 0.02-0.3 0.02-0.127 0.06-0.35 0.12-0.67v0c0.067-0.327 0.167-0.73 0.3-1.21 0.127-0.48 0.247-0.85 0.36-1.11v0c0.147-0.28 0.393-0.54 0.74-0.78v0c0.273-0.233 1.11-0.6 2.51-1.1 1.4-0.507 3.427-0.76 6.08-0.76v0c7.307 0 10.96 3.557 10.96 10.67v0 13.82c0 0.307-0.083 0.57-0.25 0.79-0.173 0.22-0.463 0.33-0.87 0.33v0h-3.66c-0.26 0-0.493-0.037-0.7-0.11-0.2-0.073-0.39-0.217-0.57-0.43v0l-1.52-1.95h-0.17c-0.747 1.093-1.75 1.883-3.01 2.37-1.26 0.487-2.713 0.73-4.36 0.73zM147.49-5.05v0c1.493 0 2.623-0.383 3.39-1.15 0.767-0.767 1.253-1.557 1.46-2.37v0-2.71c-2.26 0-3.957 0.177-5.09 0.53-1.127 0.347-1.877 0.8-2.25 1.36-0.38 0.567-0.57 1.173-0.57 1.82v0c0 0.947 0.293 1.603 0.88 1.97 0.587 0.367 1.313 0.55 2.18 0.55zM174.22-22.17v1.81h0.1c1.22-3.387 3.417-5.08 6.59-5.08v0c0.407 0 0.74 0.02 1 0.06 0.26 0.04 0.44 0.077 0.54 0.11v0c0.24 0.08 0.36 0.267 0.36 0.56v0 5.89c0 0.5-0.293 0.637-0.88 0.41v0c-0.193-0.08-0.473-0.163-0.84-0.25-0.367-0.093-0.873-0.14-1.52-0.14v0c-1.68 0-2.993 0.613-3.94 1.84-0.94 1.233-1.41 2.907-1.41 5.02v0 10.65c0 0.487-0.103 0.823-0.31 1.01-0.2 0.187-0.543 0.28-1.03 0.28v0h-5.03c-0.493 0-0.84-0.093-1.04-0.28-0.207-0.187-0.31-0.523-0.31-1.01v0-20.46c0-0.393 0.083-0.697 0.25-0.91v0c0.34-0.453 0.75-0.917 1.23-1.39 0.48-0.473 1.07-0.977 1.77-1.51v0c0.133-0.1 0.263-0.167 0.39-0.2 0.133-0.033 0.247-0.05 0.34-0.05v0c0.233 0 0.463 0.083 0.69 0.25v0c1.347 1.06 2.29 1.963 2.83 2.71v0c0.147 0.193 0.22 0.42 0.22 0.68zM198.71 0.61v0c-2.753 0-5.147-0.443-7.18-1.33-2.033-0.887-3.613-2.267-4.74-4.14-1.12-1.873-1.68-4.29-1.68-7.25v0c0-4.44 1.14-7.8 3.42-10.08 2.273-2.28 5.3-3.42 9.08-3.42v0c2.453 0 4.533 0.44 6.24 1.32 1.7 0.88 2.993 2.093 3.88 3.64 0.887 1.547 1.33 3.31 1.33 5.29v0c0 1.94-0.497 3.293-1.49 4.06-0.993 0.76-2.443 1.14-4.35 1.14v0h-10.47c0.127 1.68 0.74 2.96 1.84 3.84 1.1 0.88 2.593 1.32 4.48 1.32v0c1.5 0 2.7-0.227 3.6-0.68 0.907-0.447 1.54-0.8 1.9-1.06v0c0.307-0.227 0.657-0.333 1.05-0.32v0c0.307 0 0.75 0.063 1.33 0.19 0.573 0.12 1.147 0.343 1.72 0.67v0c0.407 0.213 0.61 0.507 0.61 0.88v0c0 0.213-0.04 0.513-0.12 0.9v0c-0.053 0.227-0.137 0.557-0.25 0.99-0.113 0.433-0.26 0.837-0.44 1.21v0c-0.093 0.18-0.247 0.35-0.46 0.51v0c-0.327 0.227-0.853 0.527-1.58 0.9-0.72 0.38-1.707 0.71-2.96 0.99-1.253 0.287-2.84 0.43-4.76 0.43zM192.7-15.16v0h7.96c0.827 0 1.24-0.383 1.24-1.15v0c0-1.153-0.36-2.127-1.08-2.92-0.727-0.787-1.813-1.18-3.26-1.18v0c-1.58 0-2.74 0.503-3.48 1.51-0.74 1.013-1.2 2.26-1.38 3.74zM237.06 0.61v0c-2.167 0-4.01-0.533-5.53-1.6-1.52-1.067-2.677-2.54-3.47-4.42-0.787-1.88-1.18-4.047-1.18-6.5v0c0-3.24 0.573-5.867 1.72-7.88 1.147-2.007 2.767-3.483 4.86-4.43 2.093-0.94 4.563-1.41 7.41-1.41v0c0.973 0 1.783 0.047 2.43 0.14 0.64 0.1 1.1 0.19 1.38 0.27v0-9.11c0-0.387 0.08-0.687 0.24-0.9v0c0.687-0.893 1.687-1.86 3-2.9v0c0.233-0.167 0.44-0.25 0.62-0.25v0c0.207 0 0.41 0.083 0.61 0.25v0c0.7 0.533 1.29 1.037 1.77 1.51 0.48 0.473 0.89 0.937 1.23 1.39v0c0.16 0.213 0.24 0.513 0.24 0.9v0 33.21c0 0.307-0.103 0.57-0.31 0.79-0.213 0.22-0.483 0.33-0.81 0.33v0h-3.64c-0.26 0-0.49-0.037-0.69-0.11-0.207-0.073-0.4-0.217-0.58-0.43v0l-1.51-1.95h-0.17c-0.213 0.327-0.593 0.737-1.14 1.23-0.547 0.5-1.337 0.937-2.37 1.31-1.033 0.373-2.403 0.56-4.11 0.56zM239.43-5.64v0c1.467 0 2.617-0.277 3.45-0.83 0.84-0.553 1.44-1.253 1.8-2.1v0-10.23c-0.26-0.16-0.693-0.353-1.3-0.58-0.6-0.233-1.447-0.35-2.54-0.35v0c-2.013 0-3.527 0.66-4.54 1.98-1.007 1.32-1.51 3.093-1.51 5.32v0c0 2.313 0.423 4.023 1.27 5.13 0.847 1.107 1.97 1.66 3.37 1.66zM271.24 0.61v0c-2.753 0-5.147-0.443-7.18-1.33-2.033-0.887-3.61-2.267-4.73-4.14-1.127-1.873-1.69-4.29-1.69-7.25v0c0-4.44 1.14-7.8 3.42-10.08 2.28-2.28 5.307-3.42 9.08-3.42v0c2.46 0 4.54 0.44 6.24 1.32 1.7 0.88 2.993 2.093 3.88 3.64 0.887 1.547 1.33 3.31 1.33 5.29v0c0 1.94-0.497 3.293-1.49 4.06-0.993 0.76-2.44 1.14-4.34 1.14v0h-10.48c0.133 1.68 0.75 2.96 1.85 3.84 1.093 0.88 2.587 1.32 4.48 1.32v0c1.493 0 2.693-0.227 3.6-0.68 0.9-0.447 1.53-0.8 1.89-1.06v0c0.307-0.227 0.657-0.333 1.05-0.32v0c0.307 0 0.75 0.063 1.33 0.19 0.58 0.12 1.153 0.343 1.72 0.67v0c0.407 0.213 0.61 0.507 0.61 0.88v0c0 0.213-0.04 0.513-0.12 0.9v0c-0.047 0.227-0.127 0.557-0.24 0.99-0.12 0.433-0.267 0.837-0.44 1.21v0c-0.1 0.18-0.257 0.35-0.47 0.51v0c-0.327 0.227-0.85 0.527-1.57 0.9-0.727 0.38-1.717 0.71-2.97 0.99-1.253 0.287-2.84 0.43-4.76 0.43zM265.23-15.16v0h7.96c0.833 0 1.25-0.383 1.25-1.15v0c0-1.153-0.363-2.127-1.09-2.92-0.72-0.787-1.807-1.18-3.26-1.18v0c-1.58 0-2.74 0.503-3.48 1.51-0.74 1.013-1.2 2.26-1.38 3.74zM292.24-2.27v0c-0.9-1.413-1.783-3.047-2.65-4.9-0.873-1.847-1.663-3.717-2.37-5.61-0.707-1.9-1.273-3.633-1.7-5.2-0.42-1.573-0.63-2.783-0.63-3.63v0c0-0.32 0.09-0.587 0.27-0.8v0c0.747-0.927 1.81-1.897 3.19-2.91v0c0.247-0.16 0.467-0.24 0.66-0.24v0c0.213 0 0.433 0.08 0.66 0.24v0c0.753 0.54 1.383 1.047 1.89 1.52 0.513 0.467 0.95 0.93 1.31 1.39v0c0.18 0.213 0.27 0.513 0.27 0.9v0-0.12c0 1.06 0.19 2.447 0.57 4.16 0.387 1.72 0.913 3.53 1.58 5.43 0.667 1.907 1.44 3.657 2.32 5.25v0h0.12c0.733-1.2 1.383-2.5 1.95-3.9 0.573-1.4 1.053-2.8 1.44-4.2 0.393-1.4 0.69-2.687 0.89-3.86 0.207-1.173 0.31-2.127 0.31-2.86v0 0.1c0-0.387 0.08-0.687 0.24-0.9v0c0.38-0.46 0.82-0.923 1.32-1.39 0.507-0.473 1.117-0.98 1.83-1.52v0c0.227-0.16 0.44-0.24 0.64-0.24v0c0.227 0 0.437 0.08 0.63 0.24v0c0.733 0.54 1.353 1.047 1.86 1.52 0.5 0.467 0.93 0.93 1.29 1.39v0c0.167 0.213 0.25 0.497 0.25 0.85v0c-0.02 0.88-0.25 2.113-0.69 3.7-0.44 1.587-1.03 3.33-1.77 5.23-0.74 1.893-1.567 3.757-2.48 5.59-0.907 1.827-1.833 3.417-2.78 4.77v0c-0.567 0.827-1.08 1.413-1.54 1.76-0.453 0.34-1.243 0.51-2.37 0.51v0h-2.58c-1.173 0-1.983-0.163-2.43-0.49-0.447-0.327-0.947-0.92-1.5-1.78zM284.89-21.51v-0.12 0.02c0 0.033 0 0.067 0 0.1zM310.38-21.61v0 0.1-0.05c0-0.013 0-0.03 0-0.05zM327.15 0.61v0c-2.753 0-5.147-0.443-7.18-1.33-2.033-0.887-3.613-2.267-4.74-4.14-1.12-1.873-1.68-4.29-1.68-7.25v0c0-4.44 1.14-7.8 3.42-10.08 2.28-2.28 5.307-3.42 9.08-3.42v0c2.46 0 4.54 0.44 6.24 1.32 1.7 0.88 2.993 2.093 3.88 3.64 0.887 1.547 1.33 3.31 1.33 5.29v0c0 1.94-0.497 3.293-1.49 4.06-0.993 0.76-2.44 1.14-4.34 1.14v0h-10.48c0.133 1.68 0.747 2.96 1.84 3.84 1.1 0.88 2.593 1.32 4.48 1.32v0c1.5 0 2.703-0.227 3.61-0.68 0.9-0.447 1.53-0.8 1.89-1.06v0c0.307-0.227 0.657-0.333 1.05-0.32v0c0.307 0 0.75 0.063 1.33 0.19 0.573 0.12 1.147 0.343 1.72 0.67v0c0.407 0.213 0.61 0.507 0.61 0.88v0c0 0.213-0.04 0.513-0.12 0.9v0c-0.053 0.227-0.137 0.557-0.25 0.99-0.113 0.433-0.26 0.837-0.44 1.21v0c-0.093 0.18-0.247 0.35-0.46 0.51v0c-0.327 0.227-0.85 0.527-1.57 0.9-0.727 0.38-1.717 0.71-2.97 0.99-1.253 0.287-2.84 0.43-4.76 0.43zM321.14-15.16v0h7.96c0.833 0 1.25-0.383 1.25-1.15v0c0-1.153-0.363-2.127-1.09-2.92-0.727-0.787-1.813-1.18-3.26-1.18v0c-1.58 0-2.74 0.503-3.48 1.51-0.74 1.013-1.2 2.26-1.38 3.74zM351.17-1.83l-5.1 2.34c-0.34 0.147-0.583 0.22-0.73 0.22v0c-0.147 0-0.303-0.057-0.47-0.17v0c-0.373-0.26-0.8-0.897-1.28-1.91-0.48-1.02-0.72-2.587-0.72-4.7v0-28.28c0-0.387 0.083-0.687 0.25-0.9v0c0.68-0.893 1.68-1.86 3-2.9v0c0.227-0.167 0.43-0.25 0.61-0.25v0c0.213 0 0.417 0.083 0.61 0.25v0c0.7 0.533 1.29 1.037 1.77 1.51 0.48 0.473 0.89 0.937 1.23 1.39v0c0.167 0.213 0.25 0.513 0.25 0.9v0 26.79c0 1.073 0.087 1.987 0.26 2.74 0.18 0.76 0.393 1.367 0.64 1.82v0c0.273 0.54 0.167 0.923-0.32 1.15zM369.26 0.61v0c-4.1 0-7.347-1.09-9.74-3.27-2.393-2.18-3.59-5.427-3.59-9.74v0c0-4.427 1.243-7.737 3.73-9.93 2.48-2.187 5.793-3.28 9.94-3.28v0c4.007 0 7.213 1.077 9.62 3.23 2.413 2.16 3.62 5.34 3.62 9.54v0c0 4.38-1.207 7.717-3.62 10.01-2.407 2.293-5.727 3.44-9.96 3.44zM369.51-5.3v0c1.787 0 3.137-0.557 4.05-1.67 0.913-1.113 1.37-3.023 1.37-5.73v0c0-2.567-0.46-4.377-1.38-5.43-0.92-1.047-2.283-1.57-4.09-1.57v0c-1.74 0-3.113 0.563-4.12 1.69-1 1.133-1.5 2.97-1.5 5.51v0c0 2.653 0.477 4.517 1.43 5.59 0.953 1.073 2.367 1.61 4.24 1.61zM403.64-25.61v0c2.373 0 4.33 0.533 5.87 1.6 1.54 1.067 2.687 2.53 3.44 4.39 0.76 1.867 1.14 4.003 1.14 6.41v0c0 2.607-0.443 4.95-1.33 7.03-0.887 2.087-2.193 3.74-3.92 4.96-1.727 1.22-3.867 1.83-6.42 1.83v0c-1.32 0-2.407-0.15-3.26-0.45-0.853-0.3-1.537-0.66-2.05-1.08-0.513-0.413-0.917-0.79-1.21-1.13v0h-0.1v10.4c0 0.393-0.08 0.693-0.24 0.9v0c-0.687 0.9-1.69 1.87-3.01 2.91v0c-0.227 0.16-0.43 0.24-0.61 0.24v0c-0.193 0-0.397-0.08-0.61-0.24v0c-0.7-0.54-1.29-1.047-1.77-1.52-0.48-0.467-0.89-0.93-1.23-1.39v0c-0.16-0.207-0.24-0.507-0.24-0.9v0-30.1c0-0.393 0.08-0.697 0.24-0.91v0c0.34-0.453 0.75-0.917 1.23-1.39 0.48-0.473 1.07-0.977 1.77-1.51v0c0.213-0.167 0.433-0.25 0.66-0.25v0c0.213 0 0.433 0.083 0.66 0.25v0c0.687 0.533 1.273 1.047 1.76 1.54 0.487 0.487 0.917 0.99 1.29 1.51v0h0.13c0.273-0.34 0.693-0.753 1.26-1.24 0.573-0.493 1.383-0.927 2.43-1.3 1.053-0.373 2.427-0.56 4.12-0.56zM400.63-5.62v0c1.76 0 3.123-0.613 4.09-1.84 0.973-1.227 1.46-3.003 1.46-5.33v0c0-4.393-1.807-6.59-5.42-6.59v0c-1.533 0-2.667 0.313-3.4 0.94-0.733 0.627-1.253 1.287-1.56 1.98v0 5.3c0 1.58 0.407 2.9 1.22 3.96 0.813 1.053 2.017 1.58 3.61 1.58zM431.59 0.61v0c-2.747 0-5.14-0.443-7.18-1.33-2.033-0.887-3.61-2.267-4.73-4.14-1.127-1.873-1.69-4.29-1.69-7.25v0c0-4.44 1.14-7.8 3.42-10.08 2.28-2.28 5.307-3.42 9.08-3.42v0c2.46 0 4.54 0.44 6.24 1.32 1.7 0.88 2.993 2.093 3.88 3.64 0.887 1.547 1.33 3.31 1.33 5.29v0c0 1.94-0.497 3.293-1.49 4.06-0.993 0.76-2.44 1.14-4.34 1.14v0h-10.48c0.133 1.68 0.75 2.96 1.85 3.84 1.1 0.88 2.593 1.32 4.48 1.32v0c1.493 0 2.693-0.227 3.6-0.68 0.9-0.447 1.53-0.8 1.89-1.06v0c0.313-0.227 0.663-0.333 1.05-0.32v0c0.307 0 0.75 0.063 1.33 0.19 0.58 0.12 1.153 0.343 1.72 0.67v0c0.407 0.213 0.61 0.507 0.61 0.88v0c0 0.213-0.04 0.513-0.12 0.9v0c-0.047 0.227-0.127 0.557-0.24 0.99-0.113 0.433-0.26 0.837-0.44 1.21v0c-0.1 0.18-0.257 0.35-0.47 0.51v0c-0.32 0.227-0.843 0.527-1.57 0.9-0.727 0.38-1.717 0.71-2.97 0.99-1.253 0.287-2.84 0.43-4.76 0.43zM425.59-15.16v0h7.95c0.833 0 1.25-0.383 1.25-1.15v0c0-1.153-0.363-2.127-1.09-2.92-0.72-0.787-1.807-1.18-3.26-1.18v0c-1.573 0-2.73 0.503-3.47 1.51-0.747 1.013-1.207 2.26-1.38 3.74zM455.03-22.17v1.81h0.1c1.22-3.387 3.417-5.08 6.59-5.08v0c0.407 0 0.74 0.02 1 0.06 0.26 0.04 0.44 0.077 0.54 0.11v0c0.24 0.08 0.36 0.267 0.36 0.56v0 5.89c0 0.5-0.293 0.637-0.88 0.41v0c-0.193-0.08-0.473-0.163-0.84-0.25-0.367-0.093-0.873-0.14-1.52-0.14v0c-1.68 0-2.99 0.613-3.93 1.84-0.947 1.233-1.42 2.907-1.42 5.02v0 10.65c0 0.487-0.103 0.823-0.31 1.01-0.2 0.187-0.543 0.28-1.03 0.28v0h-5.03c-0.493 0-0.84-0.093-1.04-0.28-0.207-0.187-0.31-0.523-0.31-1.01v0-20.46c0-0.393 0.083-0.697 0.25-0.91v0c0.34-0.453 0.75-0.917 1.23-1.39 0.48-0.473 1.07-0.977 1.77-1.51v0c0.133-0.1 0.263-0.167 0.39-0.2 0.133-0.033 0.247-0.05 0.34-0.05v0c0.233 0 0.463 0.083 0.69 0.25v0c1.347 1.06 2.29 1.963 2.83 2.71v0c0.147 0.193 0.22 0.42 0.22 0.68z" fill="#cf7650" fill-rule="nonzero" stroke="none" stroke-width="1" stroke-linecap="butt" stroke-linejoin="miter" stroke-miterlimit="10" stroke-dasharray="" stroke-dashoffset="0" font-family="none" font-weight="none" font-size="none" text-anchor="none" style="mix-blend-mode: normal" data-fill-palette-color="secondary" id="text-1"></path></g></g><g transform="matrix(1,0,0,1,29.33176499999999,55.79582230317908)"><svg viewBox="0 0 316.416 60.08675739364188" height="60.08675739364188" width="316.416"><g><svg viewBox="0 0 379.2234208730739 72.01375938001662" height="60.08675739364188" width="316.416"><g transform="matrix(1,0,0,1,0,9.952697569886528)"><svg viewBox="0 0 316.416 52.10836424024357" height="52.10836424024357" width="316.416"><g id="textblocktransform"><svg viewBox="0 0 316.416 52.10836424024357" height="52.10836424024357" width="316.416" id="textblock"><g><svg viewBox="0 0 316.416 52.10836424024357" height="52.10836424024357" width="316.416"><g transform="matrix(1,0,0,1,0,0)"><svg width="316.416" viewBox="0.49 -37.94 352.78999999999996 58.11" height="52.10836424024357" data-palette-color="#cf7650"><path d="M12.11 0.24L0.49-21.58 2-23.1 12.74-3.56 17.33-22.46Q17.68-22.31 18.07-22.24 18.46-22.17 18.77-22.09 19.09-22.02 19.29-21.92 19.48-21.83 19.48-21.58L19.48-21.58Q18.85-18.46 18.29-15.72 17.72-12.99 17.09-10.4 16.46-7.81 15.72-5.2 14.99-2.59 14.01 0.24L14.01 0.24 12.11 0.24ZM20.6-8.94L20.6-8.94Q20.6-10.06 20.8-11.55 20.99-13.04 21.43-14.55 21.87-16.06 22.53-17.53 23.19-18.99 24.12-20.14 25.05-21.29 26.27-22 27.49-22.71 29-22.71L29-22.71Q30.56-22.71 31.91-21.63 33.25-20.56 34.2-18.85 35.15-17.14 35.64-15.04 36.13-12.94 36.03-10.94L36.03-10.94Q36.03-8.01 34.91-5.71 33.79-3.42 32.05-2 30.32-0.59 28.34-0.1 26.36 0.39 24.63-0.37 22.9-1.12 21.75-3.22 20.6-5.32 20.6-8.94ZM22.41-8.74L22.41-8.74Q22.56-5.76 23.43-4.15 24.31-2.54 25.56-2.03 26.8-1.51 28.27-2 29.73-2.49 31-3.74 32.27-4.98 33.18-6.86 34.08-8.74 34.18-11.08L34.18-11.08Q34.27-12.84 33.91-14.5 33.54-16.16 32.88-17.46 32.22-18.75 31.27-19.51 30.32-20.26 29.1-20.26L29.1-20.26Q27.93-20.26 27-19.68 26.07-19.09 25.31-18.09 24.56-17.09 24.02-15.82 23.48-14.55 23.12-13.28 22.75-12.01 22.58-10.82 22.41-9.62 22.41-8.74ZM39.69-37.94L39.69-37.94Q40.38-37.84 40.89-37.57 41.4-37.3 41.69-36.62L41.69-36.62Q41.69-35.69 41.77-34.06 41.84-32.42 41.91-30.27 41.99-28.13 42.08-25.63 42.18-23.14 42.28-20.61 42.38-18.07 42.45-15.58 42.52-13.09 42.6-10.94 42.67-8.79 42.72-7.13 42.77-5.47 42.82-4.59L42.82-4.59Q42.82-4.49 42.79-4.25 42.77-4 42.74-3.66 42.72-3.32 42.7-3 42.67-2.69 42.67-2.54L42.67-2.54Q42.62-2.25 42.62-1.83 42.62-1.42 42.52-1.03 42.43-0.63 42.21-0.32 41.99 0 41.5 0.05L41.5 0.05 40.67-0.98Q40.62-1.03 40.55-2.81 40.47-4.59 40.35-7.45 40.23-10.3 40.13-13.89 40.03-17.48 39.91-21.14 39.79-24.8 39.69-28.17 39.59-31.54 39.55-33.98L39.55-33.98Q39.55-34.18 39.57-34.77 39.59-35.35 39.62-35.96 39.64-36.57 39.67-37.13 39.69-37.7 39.69-37.94ZM45.79-8.94L45.79-8.94Q45.79-10.06 45.99-11.55 46.18-13.04 46.62-14.55 47.06-16.06 47.72-17.53 48.38-18.99 49.31-20.14 50.24-21.29 51.46-22 52.68-22.71 54.19-22.71L54.19-22.71Q55.75-22.71 57.1-21.63 58.44-20.56 59.39-18.85 60.34-17.14 60.83-15.04 61.32-12.94 61.22-10.94L61.22-10.94Q61.22-8.01 60.1-5.71 58.98-3.42 57.24-2 55.51-0.59 53.53-0.1 51.56 0.39 49.82-0.37 48.09-1.12 46.94-3.22 45.79-5.32 45.79-8.94ZM47.6-8.74L47.6-8.74Q47.75-5.76 48.63-4.15 49.5-2.54 50.75-2.03 51.99-1.51 53.46-2 54.92-2.49 56.19-3.74 57.46-4.98 58.37-6.86 59.27-8.74 59.37-11.08L59.37-11.08Q59.47-12.84 59.1-14.5 58.73-16.16 58.07-17.46 57.41-18.75 56.46-19.51 55.51-20.26 54.29-20.26L54.29-20.26Q53.12-20.26 52.19-19.68 51.26-19.09 50.51-18.09 49.75-17.09 49.21-15.82 48.67-14.55 48.31-13.28 47.94-12.01 47.77-10.82 47.6-9.62 47.6-8.74ZM62.88-7.08L62.88-7.08Q62.88-8.4 63.32-9.99 63.76-11.57 64.59-12.92 65.42-14.26 66.59-15.14 67.76-16.02 69.33-16.02L69.33-16.02Q70.5-16.02 71.4-15.8 72.3-15.58 73.11-15.06 73.92-14.55 74.62-13.84 75.33-13.13 76.11-12.21L76.11-12.21 75.82-37.26Q77.14-37.74 77.46-37.65 77.77-37.55 77.77-36.82L77.77-36.82Q77.77-36.72 77.75-36.52 77.72-36.33 77.72-36.28L77.72-36.28Q77.68-35.35 77.65-33.64 77.63-31.93 77.65-29.69 77.68-27.44 77.72-24.83 77.77-22.22 77.82-19.56 77.87-16.89 77.94-14.28 78.02-11.67 78.04-9.42 78.07-7.18 78.04-5.44 78.02-3.71 77.97-2.83L77.97-2.83Q77.43-1.71 76.48-1.12 75.53-0.54 74.43-0.27 73.33 0 72.16 0.05 70.99 0.1 69.96 0.1L69.96 0.1Q66.69 0.1 64.78-1.83 62.88-3.76 62.88-7.08ZM64.83-8.4L64.83-8.4Q64.83-7.18 65.03-5.98 65.22-4.79 65.71-3.86 66.2-2.93 67.08-2.37 67.96-1.81 69.33-1.81L69.33-1.81Q70.16-1.81 71.33-1.81 72.5-1.81 73.57-2.08 74.65-2.34 75.38-2.93 76.11-3.52 76.11-4.59L76.11-4.59Q76.11-5.86 75.75-7.5 75.38-9.13 74.62-10.62 73.87-12.11 72.72-13.16 71.57-14.21 70.01-14.21L70.01-14.21Q68.98-14.21 68.06-13.67 67.13-13.13 66.42-12.3 65.71-11.47 65.27-10.45 64.83-9.42 64.83-8.4ZM91.69 20.17L89.49 20.02Q89.49 17.58 89.93 14.99 90.37 12.4 90.83 9.81 91.3 7.23 91.61 4.64 91.93 2.05 91.69-0.44L91.69-0.44 79.53-21.04Q80.6-22.02 81.24-22.14 81.87-22.27 81.97-22.17L81.97-22.17Q82.31-21.68 83.12-20.36 83.92-19.04 84.97-17.29 86.02-15.53 87.19-13.57 88.37-11.62 89.42-9.86 90.47-8.11 91.22-6.74 91.98-5.37 92.27-4.83L92.27-4.83 94.52-22.95 96.96-21.73 91.69 20.17ZM98.72-19.04L98.72-19.04Q99.3-19.04 99.99-18.75 100.67-18.46 100.96-17.58L100.96-17.58Q101.35-19.24 102.16-20.26 102.96-21.29 104.01-21.68 105.06-22.07 106.21-21.95 107.36-21.83 108.36-21.24 109.36-20.65 110.12-19.73 110.87-18.8 111.17-17.58L111.17-17.58Q111.7-19.09 112.61-20.39 113.51-21.68 114.61-22.56 115.71-23.44 116.9-23.78 118.1-24.12 119.15-23.75 120.2-23.39 121.01-22.19 121.81-21 122.15-18.75L122.15-18.75Q122.25-18.12 122.4-16.87 122.54-15.63 122.71-14.06 122.89-12.5 123.11-10.77 123.32-9.03 123.5-7.47 123.67-5.91 123.81-4.66 123.96-3.42 124.06-2.83L124.06-2.83Q124.06-2.34 124.01-1.76 123.96-1.17 123.79-0.76 123.62-0.34 123.25-0.22 122.89-0.1 122.15-0.63L122.15-0.63Q122.15-1.22 122.01-2.54 121.86-3.86 121.71-5.59 121.57-7.32 121.35-9.25 121.13-11.18 120.91-12.89 120.69-14.6 120.54-15.92 120.4-17.24 120.25-17.77L120.25-17.77Q119.52-20.02 118.71-20.9 117.9-21.78 117.1-21.68 116.29-21.58 115.56-20.65 114.83-19.73 114.24-18.31 113.66-16.89 113.14-15.16 112.63-13.43 112.36-11.72 112.09-10.01 112.02-8.5 111.95-6.98 112.19-6.01L112.19-6.01 110.29-5.62Q110.43-10.3 109.97-13.31 109.51-16.31 108.7-17.92 107.9-19.53 106.87-19.85 105.84-20.17 104.84-19.43 103.84-18.7 103.01-16.99 102.18-15.28 101.77-12.87 101.35-10.45 101.45-7.42 101.55-4.39 102.48-0.93L102.48-0.93 100.62-0.93Q100.62-0.93 100.5-1.86 100.38-2.78 100.2-4.22 100.03-5.66 99.84-7.5 99.64-9.33 99.45-11.21 99.25-13.09 99.06-14.82 98.86-16.55 98.72-17.77L98.72-17.77Q98.72-17.92 98.72-18.43 98.72-18.95 98.72-19.04ZM137.87 20.17L135.68 20.02Q135.68 17.58 136.12 14.99 136.55 12.4 137.02 9.81 137.48 7.23 137.8 4.64 138.12 2.05 137.87-0.44L137.87-0.44 125.71-21.04Q126.79-22.02 127.42-22.14 128.06-22.27 128.16-22.17L128.16-22.17Q128.5-21.68 129.3-20.36 130.11-19.04 131.16-17.29 132.21-15.53 133.38-13.57 134.55-11.62 135.6-9.86 136.65-8.11 137.41-6.74 138.17-5.37 138.46-4.83L138.46-4.83 140.71-22.95 143.15-21.73 137.87 20.17ZM144.61-19.04L144.61-19.04Q145.19-19.29 145.63-19.14 146.07-18.99 146.37-18.6 146.66-18.21 146.81-17.7 146.95-17.19 147.05-16.7L147.05-16.7Q147.69-17.77 148.88-18.43 150.08-19.09 151.44-19.31 152.81-19.53 154.18-19.41 155.55-19.29 156.5-18.82 157.45-18.36 157.84-17.55 158.23-16.75 157.65-15.67L157.65-15.67Q156.38-16.41 154.98-16.85 153.59-17.29 152.27-17.14 150.96-16.99 149.83-16.14 148.71-15.28 147.98-13.43 147.25-11.57 147.07-8.52 146.9-5.47 147.49-0.93L147.49-0.93 145.63-0.93Q145.63-0.93 145.56-1.73 145.49-2.54 145.41-3.86 145.34-5.18 145.22-6.79 145.1-8.4 145-10.06 144.9-11.72 144.83-13.26 144.76-14.79 144.66-15.92L144.66-15.92Q144.66-16.06 144.63-16.5 144.61-16.94 144.61-17.46 144.61-17.97 144.61-18.41 144.61-18.85 144.61-19.04ZM178.59-19.04L178.59-19.04Q179.17-19.04 179.86-18.75 180.54-18.46 180.83-17.58L180.83-17.58Q181.23-19.24 182.03-20.26 182.84-21.29 183.89-21.68 184.94-22.07 186.08-21.95 187.23-21.83 188.23-21.24 189.23-20.65 189.99-19.73 190.75-18.8 191.04-17.58L191.04-17.58Q191.58-19.09 192.48-20.39 193.38-21.68 194.48-22.56 195.58-23.44 196.78-23.78 197.97-24.12 199.02-23.75 200.07-23.39 200.88-22.19 201.68-21 202.03-18.75L202.03-18.75Q202.12-18.12 202.27-16.87 202.42-15.63 202.59-14.06 202.76-12.5 202.98-10.77 203.2-9.03 203.37-7.47 203.54-5.91 203.69-4.66 203.83-3.42 203.93-2.83L203.93-2.83Q203.93-2.34 203.88-1.76 203.83-1.17 203.66-0.76 203.49-0.34 203.12-0.22 202.76-0.1 202.03-0.63L202.03-0.63Q202.03-1.22 201.88-2.54 201.73-3.86 201.59-5.59 201.44-7.32 201.22-9.25 201-11.18 200.78-12.89 200.56-14.6 200.41-15.92 200.27-17.24 200.12-17.77L200.12-17.77Q199.39-20.02 198.58-20.9 197.78-21.78 196.97-21.68 196.17-21.58 195.43-20.65 194.7-19.73 194.12-18.31 193.53-16.89 193.02-15.16 192.5-13.43 192.24-11.72 191.97-10.01 191.89-8.5 191.82-6.98 192.06-6.01L192.06-6.01 190.16-5.62Q190.31-10.3 189.84-13.31 189.38-16.31 188.57-17.92 187.77-19.53 186.74-19.85 185.72-20.17 184.72-19.43 183.72-18.7 182.89-16.99 182.06-15.28 181.64-12.87 181.23-10.45 181.32-7.42 181.42-4.39 182.35-0.93L182.35-0.93 180.49-0.93Q180.49-0.93 180.37-1.86 180.25-2.78 180.08-4.22 179.91-5.66 179.71-7.5 179.52-9.33 179.32-11.21 179.13-13.09 178.93-14.82 178.73-16.55 178.59-17.77L178.59-17.77Q178.59-17.92 178.59-18.43 178.59-18.95 178.59-19.04ZM206.03-4.2L206.03-4.2Q206.03-6.98 207.57-8.25 209.1-9.52 211.59-9.52L211.59-9.52Q212.57-9.52 213.42-9.47 214.28-9.42 215.06-9.23 215.84-9.03 216.6-8.64 217.36-8.25 218.19-7.52L218.19-7.52Q218.19-7.67 218.21-8.13 218.23-8.59 218.23-9.13 218.23-9.67 218.23-10.13 218.23-10.6 218.23-10.79L218.23-10.79Q218.19-11.67 218.19-13.06 218.19-14.45 217.97-15.92 217.75-17.38 217.09-18.7 216.43-20.02 214.96-20.7L214.96-20.7Q213.94-20.7 213.06-20.36 212.18-20.02 211.3-19.63 210.42-19.24 209.54-18.92 208.66-18.6 207.64-18.6L207.64-18.6Q207.64-19.82 208.4-20.63 209.15-21.44 210.23-21.88 211.3-22.31 212.47-22.46 213.64-22.61 214.52-22.61L214.52-22.61Q215.4-22.46 216.16-22.27 216.92-22.07 217.58-21.48 218.23-20.9 218.8-19.7 219.36-18.51 219.77-16.36 220.19-14.21 220.5-10.91 220.82-7.62 221.02-2.83L221.02-2.83Q221.12-2.2 220.6-1.73 220.09-1.27 219.21-0.95 218.33-0.63 217.23-0.42 216.13-0.2 215.01-0.1 213.89 0 212.86 0.05 211.84 0.1 211.15 0.1L211.15 0.1Q210.28 0.1 209.37-0.2 208.47-0.49 207.71-1.05 206.95-1.61 206.49-2.42 206.03-3.22 206.03-4.2ZM212.37-7.62L212.37-7.62Q209.93-6.93 208.96-5.98 207.98-5.03 208.1-4.15 208.22-3.27 209.25-2.56 210.28-1.86 211.74-1.64 213.2-1.42 214.91-1.88 216.62-2.34 218.19-3.71L218.19-3.71Q217.6-5.13 217.01-5.88 216.43-6.64 215.74-7.03 215.06-7.42 214.23-7.52 213.4-7.62 212.37-7.62ZM224.73-1.32L224.73-1.32Q224.68-2.34 224.51-4.47 224.34-6.59 224.14-9.25 223.94-11.91 223.75-14.89 223.55-17.87 223.38-20.53 223.21-23.19 223.07-25.32 222.92-27.44 222.87-28.47L222.87-28.47Q222.82-28.91 222.8-30 222.77-31.1 222.72-32.35 222.68-33.59 222.65-34.69 222.63-35.79 222.63-36.23L222.63-36.23Q223.31-36.23 223.85-35.96 224.38-35.69 224.73-35.06L224.73-35.06Q224.82-34.03 224.95-32.15 225.07-30.27 225.21-27.83 225.36-25.39 225.53-22.61 225.7-19.82 225.85-17.09L225.85-17.09Q226-17.33 226.14-17.53 226.29-17.72 226.34-17.77L226.34-17.77Q226.87-18.36 227.61-19.14 228.34-19.92 229.14-20.75 229.95-21.58 230.76-22.39 231.56-23.19 232.22-23.85 232.88-24.51 233.32-24.9 233.76-25.29 233.86-25.29L233.86-25.29 235.71-24.37Q234.88-23.63 233.81-22.66 232.73-21.68 231.71-20.58 230.68-19.48 229.73-18.29 228.78-17.09 228.19-15.92L228.19-15.92Q228.19-15.87 228.17-15.7 228.14-15.53 228.14-15.43L228.14-15.43Q228.14-15.38 228.17-15.21 228.19-15.04 228.19-14.99L228.19-14.99 239.47-1.86Q239.47-1.81 239.5-1.66 239.52-1.51 239.52-1.42L239.52-1.42Q239.52-0.49 238.54 0L238.54 0 226.34-14.06Q226.29-14.11 226.22-14.23 226.14-14.36 226.04-14.5L226.04-14.5 226.58-5.03Q226.58-4.79 226.61-4.1 226.63-3.42 226.65-2.61 226.68-1.81 226.7-1.1 226.73-0.39 226.73-0.15L226.73-0.15Q226.09-0.15 225.56-0.42 225.02-0.68 224.73-1.32ZM244.4-3.96L244.4-3.96Q245.28-3.96 246.04-3.61 246.79-3.27 247.53-2.86 248.26-2.44 249.02-2.12 249.77-1.81 250.65-1.81L250.65-1.81Q251.68-1.81 252.78-2.17 253.87-2.54 254.8-3.2 255.73-3.86 256.32-4.81 256.9-5.76 256.9-6.88L256.9-6.88Q256.95-7.23 256.93-7.71 256.9-8.2 256.61-8.72 256.32-9.23 255.63-9.69 254.95-10.16 253.65-10.4 252.36-10.64 250.41-10.67 248.45-10.69 245.57-10.3L245.57-10.3Q244.84-10.3 244.16-10.72 243.47-11.13 242.94-11.74 242.4-12.35 242.06-13.06 241.72-13.77 241.72-14.4L241.72-14.4Q241.72-16.31 242.52-17.5 243.33-18.7 244.6-19.41 245.87-20.12 247.43-20.41 248.99-20.7 250.6-20.7L250.6-20.7Q251.33-20.7 252.29-20.63 253.24-20.56 254.04-20.24 254.85-19.92 255.41-19.24 255.97-18.55 255.97-17.33L255.97-17.33Q255.88-16.5 255.7-16.33 255.53-16.16 255.22-16.43 254.9-16.7 254.46-17.19 254.02-17.68 253.41-18.14 252.8-18.6 251.95-18.85 251.09-19.09 250.02-18.85L250.02-18.85Q248.89-18.85 247.77-18.63 246.65-18.41 245.74-17.87 244.84-17.33 244.28-16.41 243.72-15.48 243.72-14.06L243.72-14.06Q243.72-13.33 244.38-13.06 245.04-12.79 246.13-12.79 247.23-12.79 248.62-12.87 250.02-12.94 251.48-12.94 252.95-12.94 254.31-12.72 255.68-12.5 256.73-11.84 257.78-11.18 258.37-9.96 258.95-8.74 258.81-6.79L258.81-6.79Q258.81-5.37 258-4.1 257.19-2.83 255.95-1.88 254.7-0.93 253.19-0.39 251.68 0.15 250.26 0L250.26 0Q249.67-0.05 248.67-0.32 247.67-0.59 246.72-1.07 245.77-1.56 245.08-2.27 244.4-2.98 244.4-3.96ZM272.77 20.17L270.57 20.02Q270.57 17.58 271.01 14.99 271.45 12.4 271.91 9.81 272.38 7.23 272.69 4.64 273.01 2.05 272.77-0.44L272.77-0.44 260.61-21.04Q261.68-22.02 262.32-22.14 262.95-22.27 263.05-22.17L263.05-22.17Q263.39-21.68 264.2-20.36 265-19.04 266.05-17.29 267.1-15.53 268.28-13.57 269.45-11.62 270.5-9.86 271.55-8.11 272.3-6.74 273.06-5.37 273.35-4.83L273.35-4.83 275.6-22.95 278.04-21.73 272.77 20.17ZM279.8-19.04L279.8-19.04Q280.38-19.04 281.07-18.75 281.75-18.46 282.04-17.58L282.04-17.58Q282.43-19.24 283.24-20.26 284.04-21.29 285.09-21.68 286.14-22.07 287.29-21.95 288.44-21.83 289.44-21.24 290.44-20.65 291.2-19.73 291.95-18.8 292.25-17.58L292.25-17.58Q292.78-19.09 293.69-20.39 294.59-21.68 295.69-22.56 296.79-23.44 297.98-23.78 299.18-24.12 300.23-23.75 301.28-23.39 302.09-22.19 302.89-21 303.23-18.75L303.23-18.75Q303.33-18.12 303.48-16.87 303.62-15.63 303.8-14.06 303.97-12.5 304.19-10.77 304.41-9.03 304.58-7.47 304.75-5.91 304.89-4.66 305.04-3.42 305.14-2.83L305.14-2.83Q305.14-2.34 305.09-1.76 305.04-1.17 304.87-0.76 304.7-0.34 304.33-0.22 303.97-0.1 303.23-0.63L303.23-0.63Q303.23-1.22 303.09-2.54 302.94-3.86 302.79-5.59 302.65-7.32 302.43-9.25 302.21-11.18 301.99-12.89 301.77-14.6 301.62-15.92 301.48-17.24 301.33-17.77L301.33-17.77Q300.6-20.02 299.79-20.9 298.99-21.78 298.18-21.68 297.37-21.58 296.64-20.65 295.91-19.73 295.32-18.31 294.74-16.89 294.23-15.16 293.71-13.43 293.44-11.72 293.18-10.01 293.1-8.5 293.03-6.98 293.27-6.01L293.27-6.01 291.37-5.62Q291.52-10.3 291.05-13.31 290.59-16.31 289.78-17.92 288.98-19.53 287.95-19.85 286.93-20.17 285.92-19.43 284.92-18.7 284.09-16.99 283.26-15.28 282.85-12.87 282.43-10.45 282.53-7.42 282.63-4.39 283.56-0.93L283.56-0.93 281.7-0.93Q281.7-0.93 281.58-1.86 281.46-2.78 281.29-4.22 281.11-5.66 280.92-7.5 280.72-9.33 280.53-11.21 280.33-13.09 280.14-14.82 279.94-16.55 279.8-17.77L279.8-17.77Q279.8-17.92 279.8-18.43 279.8-18.95 279.8-19.04ZM310.31 0.1L309.58-18.95Q310.17-18.95 310.58-18.99 311-19.04 311.29-18.51L311.29-18.51Q311.43-16.31 311.63-14.04 311.83-11.77 312.02-9.47 312.22-7.18 312.29-4.86 312.36-2.54 312.31-0.34L312.31-0.34Q312.31-0.05 312.17 0.02 312.02 0.1 311.75 0.07 311.48 0.05 311.12 0.02 310.75 0 310.31 0.1L310.31 0.1ZM306.75-27.69L306.75-27.69Q306.75-28.03 306.8-28.44 306.84-28.86 307.02-29.2 307.19-29.54 307.46-29.79 307.72-30.03 308.11-30.03L308.11-30.03Q308.7-30.03 309.29-29.98 309.87-29.93 310.41-29.76 310.95-29.59 311.29-29.22 311.63-28.86 311.63-28.17L311.63-28.17Q311.63-27 310.75-26.1 309.87-25.2 308.6-25.2L308.6-25.2Q307.63-25.2 307.19-25.95 306.75-26.71 306.75-27.69ZM309.58-27.44L309.58-27.44Q309.43-27.44 309.43-27.2 309.43-26.95 309.58-26.95L309.58-26.95Q309.77-26.95 309.77-27.2 309.77-27.44 309.58-27.44ZM314.31-18.95L314.31-18.95Q314.31-19.19 314.63-19.43 314.95-19.68 315.41-19.82 315.88-19.97 316.31-20.02 316.75-20.07 316.95-19.87L316.95-19.87Q317.24-13.82 318.1-10.23 318.95-6.64 320.05-4.98 321.15-3.32 322.42-3.3 323.69-3.27 324.91-4.37 326.13-5.47 327.18-7.37 328.23-9.28 328.89-11.47 329.55-13.67 329.69-15.87 329.84-18.07 329.3-19.78L329.3-19.78 332.23-20.12Q332.28-19.38 332.5-17.7 332.72-16.02 332.99-13.89 333.26-11.77 333.6-9.47 333.94-7.18 334.19-5.2 334.43-3.22 334.63-1.83 334.82-0.44 334.82-0.1L334.82-0.1 332.72-0.1 330.43-8.54Q329.74-6.84 328.77-5.27 327.79-3.71 326.64-2.54 325.49-1.37 324.23-0.71 322.96-0.05 321.71-0.17 320.47-0.29 319.29-1.32 318.12-2.34 317.12-4.57 316.12-6.79 315.39-10.3 314.65-13.82 314.31-18.95ZM338.48-1.32L338.48-1.32Q338.43-2.34 338.26-4.47 338.09-6.59 337.89-9.25 337.7-11.91 337.5-14.89 337.31-17.87 337.14-20.53 336.97-23.19 336.82-25.32 336.67-27.44 336.62-28.47L336.62-28.47Q336.58-28.91 336.55-30 336.53-31.1 336.48-32.35 336.43-33.59 336.41-34.69 336.38-35.79 336.38-36.23L336.38-36.23Q337.06-36.23 337.6-35.96 338.14-35.69 338.48-35.06L338.48-35.06Q338.58-34.03 338.7-32.15 338.82-30.27 338.97-27.83 339.12-25.39 339.29-22.61 339.46-19.82 339.6-17.09L339.6-17.09Q339.75-17.33 339.9-17.53 340.04-17.72 340.09-17.77L340.09-17.77Q340.63-18.36 341.36-19.14 342.09-19.92 342.9-20.75 343.71-21.58 344.51-22.39 345.32-23.19 345.98-23.85 346.63-24.51 347.07-24.9 347.51-25.29 347.61-25.29L347.61-25.29 349.47-24.37Q348.64-23.63 347.56-22.66 346.49-21.68 345.46-20.58 344.44-19.48 343.49-18.29 342.53-17.09 341.95-15.92L341.95-15.92Q341.95-15.87 341.92-15.7 341.9-15.53 341.9-15.43L341.9-15.43Q341.9-15.38 341.92-15.21 341.95-15.04 341.95-14.99L341.95-14.99 353.23-1.86Q353.23-1.81 353.25-1.66 353.28-1.51 353.28-1.42L353.28-1.42Q353.28-0.49 352.3 0L352.3 0 340.09-14.06Q340.04-14.11 339.97-14.23 339.9-14.36 339.8-14.5L339.8-14.5 340.34-5.03Q340.34-4.79 340.36-4.1 340.38-3.42 340.41-2.61 340.43-1.81 340.46-1.1 340.48-0.39 340.48-0.15L340.48-0.15Q339.85-0.15 339.31-0.42 338.77-0.68 338.48-1.32Z" opacity="1" transform="matrix(1,0,0,1,0,0)" fill="#cf7650" class="wordmark-text-0" data-fill-palette-color="primary" id="text-0"></path></svg></g></svg></g></svg></g></svg></g><g transform="matrix(1,0,0,1,328.71753419637975,0)"><svg viewBox="0 0 50.50588667669418 72.01375938001662" height="72.01375938001662" width="50.50588667669418"><g><svg xmlns="http://www.w3.org/2000/svg" xmlns:xlink="http://www.w3.org/1999/xlink" version="1.1" x="0" y="0" viewBox="18.44 5 63.12100000000001 90.00100394086492" enable-background="new 0 0 100 100" xml:space="preserve" height="72.01375938001662" width="50.50588667669418" class="icon-icon-0" data-fill-palette-color="accent" id="icon-0"><g fill="#d5a187" data-fill-palette-color="accent"><path fill="none" d="M76.609 57.975H23.391A3.55 3.55 0 0 0 19.843 61.523L24.279 87.247A3.547 3.547 0 0 0 27.826 90.794H72.176A3.55 3.55 0 0 0 75.724 87.247L80.159 61.523A3.55 3.55 0 0 0 76.609 57.975M50 76.045A2.105 2.105 0 1 1 49.997 71.835 2.105 2.105 0 0 1 50 76.046"></path><path d="M50 40.258C44.036 40.258 39.108 33.794 38.316 25.4H36.694C37.596 34.959 43.208 42.324 50 42.324S62.404 34.959 63.306 25.4H61.685C60.893 33.794 55.964 40.258 50 40.258" fill="#d5a187" data-fill-palette-color="accent"></path><path d="M76.609 56.572C76.742 56.572 76.872 56.582 77.002 56.592 76.232 48.333 69.844 41.704 61.695 40.571 61.665 40.567 61.632 40.564 61.601 40.559A20 20 0 0 0 60.85 40.474C60.85 40.5 60.842 40.526 60.841 40.551 60.838 40.625 60.824 40.696 60.816 40.772A3.6 3.6 0 0 1 60.45 41.987C59.137 45.294 54.887 51.561 52.385 55.116L51.869 47.726A4.34 4.34 0 0 0 53.632 46.011C53.921 45.493 54.099 44.929 54.099 44.354 54.099 44.354 52.232 45.181 50.327 45.181 50.218 45.181 50.11 45.177 50.001 45.171 49.893 45.177 49.784 45.181 49.675 45.181 47.77 45.181 45.903 44.354 45.903 44.354 45.903 44.929 46.08 45.494 46.37 46.011A4.3 4.3 0 0 0 48.132 47.726L47.616 55.116C45.114 51.56 40.865 45.293 39.552 41.987A3.6 3.6 0 0 1 39.185 40.772C39.176 40.696 39.163 40.625 39.16 40.551 39.159 40.526 39.152 40.5 39.151 40.474A21 21 0 0 0 38.4 40.559L38.306 40.571C30.158 41.704 23.769 48.333 22.999 56.592 23.129 56.582 23.259 56.572 23.391 56.572z" fill="#d5a187" data-fill-palette-color="accent"></path><path d="M36.061 23.412H63.939A1.967 1.967 0 1 0 63.939 19.48H63.404C63.404 14.256 60.413 9.734 56.051 7.522L55.653 9.788 54.941 13.82A1.028 1.028 0 1 1 52.918 13.463L53.701 9.02 54.185 6.27A2.69 2.69 0 0 0 51.901 5H48.097C47.133 5 46.29 5.507 45.814 6.269L46.299 9.019 47.082 13.462A1.026 1.026 0 0 1 46.07 14.669C45.58 14.669 45.146 14.318 45.059 13.819L44.348 9.788 43.949 7.523C39.587 9.733 36.598 14.256 36.598 19.48H36.061A1.966 1.966 0 0 0 36.061 23.412" fill="#d5a187" data-fill-palette-color="accent"></path><path fill="#d5a187" d="M74.126 92.896H25.874A1.052 1.052 0 0 0 25.874 95H74.126A1.053 1.053 0 1 0 74.126 92.896" data-fill-palette-color="accent"></path><path fill="#d5a187" d="M77.002 56.592C76.872 56.582 76.742 56.572 76.609 56.572H23.391C23.259 56.572 23.129 56.582 22.999 56.592A4.954 4.954 0 0 0 18.44 61.523V61.643L18.461 61.761 22.878 87.376A4.954 4.954 0 0 0 27.825 92.196H72.175C74.861 92.196 77.055 90.046 77.123 87.376L81.54 61.761 81.561 61.643V61.523A4.955 4.955 0 0 0 77.002 56.592M75.723 87.246A3.55 3.55 0 0 1 72.175 90.793H27.825A3.55 3.55 0 0 1 24.278 87.246L19.842 61.522A3.55 3.55 0 0 1 23.39 57.974H76.609A3.55 3.55 0 0 1 80.157 61.522z" data-fill-palette-color="accent"></path><circle fill="#d5a187" cx="50" cy="73.941" r="2.1" data-fill-palette-color="accent"></circle></g></svg></g></svg></g></svg></g></svg></g></svg></g><defs></defs></svg><rect width="375.07953" height="171.67840200000003" fill="none" stroke="none" visibility="hidden"></rect></g></svg></g></svg>